:SAMPLES-PER-SECOND 30
:FULLY-SPECIFIED
:DEGREES
63
root  -3.36259 39.2256 -0.178786 -137.338 -82.5805 128.921
RightUpLeg  -23.2925 -8.92032 -9.15742
RightLeg  55.2765 -2.58097 -4.37955
RightFoot  5.31037 -0.634235 4.55911
RightToes  0.000482159 0.542163 -0.142577
Spine  17.3893 2.54333 3.69137
Spine1  10.3841 6.67127 -12.0837
HEad  -10.2128 -5.20503 0.530466
LeftShoulder1  6.4593 -11.4798 -36.9933
LeftArm  -15.3819 20.1682 -32.1505
LeftForeArm  35.7966 -29.4039 -4.42503
LeftHand  -0.25398 0.0180481 5.50724
RightShoulder  2.50917 6.34894 18.9885
RightArm  -22.9916 32.8015 33.0908
RightForeArm  33.0888 76.4911 54.9426
RightHand  -5.81175 13.9909 -34.2555
LeftUpLeg  -6.31931 13.2661 -9.21336
LeftLeg  23.342 6.8064 3.5525
LeftFoot  -10.6372 0.0386857 4.1621
LeftToes  1.06244e-005 4.65856e-005 -8.18505e-006
64
root  -4.56864 39.3179 -0.220115 -118.301 -83.9812 110.576
RightUpLeg  -24.6081 -11.0834 -7.69283
RightLeg  45.161 -3.75222 -4.40112
RightFoot  3.71268 -0.443016 3.56594
RightToes  0.000482159 0.542163 -0.142577
Spine  18.1397 1.50975 2.70987
Spine1  8.85424 5.25061 -12.0435
HEad  -10.6934 -5.35079 0.986231
LeftShoulder1  6.38477 -11.5372 -36.353
LeftArm  -17.4572 21.7435 -31.1929
LeftForeArm  37.3281 -35.5651 -5.81965
LeftHand  -0.25398 0.0180481 5.50724
RightShoulder  1.8911 4.7414 16.2598
RightArm  -34.9115 33.1439 28.2428
RightForeArm  84.5281 78.7113 103.352
RightHand  -4.85639 11.639 -32.614
LeftUpLeg  -4.80716 11.0327 -9.28857
LeftLeg  23.0164 6.37733 3.30718
LeftFoot  -11.5303 0.07673 4.14316
LeftToes  1.06244e-005 4.65856e-005 -8.18505e-006
65
root  -5.82361 39.3196 -0.337637 -83.3202 -83.996 76.4183
RightUpLeg  -24.5599 -14.6723 -7.05223
RightLeg  32.9287 -2.76702 -2.32351
RightFoot  3.0509 -0.602914 4.92384
RightToes  0.000482159 0.542163 -0.142577
Spine  19.0725 0.518594 1.09041
Spine1  6.98069 3.66526 -11.6857
HEad  -11.3705 -6.38719 1.59588
LeftShoulder1  6.2458 -11.4436 -35.7053
LeftArm  -18.6068 22.71 -30.1814
LeftForeArm  39.7484 -41.424 -7.29839
LeftHand  -0.25398 0.0180481 5.50724
RightShoulder  1.41992 3.17992 14.3958
RightArm  -48.5079 30.136 21.8641
RightForeArm  121.603 73.5169 139.579
RightHand  -3.16252 7.15558 -28.9803
LeftUpLeg  -3.60191 7.51348 -9.90983
LeftLeg  23.1735 6.31653 3.30226
LeftFoot  -12.9068 0.138136 4.4288
LeftToes  1.06244e-005 4.65856e-005 -8.18505e-006
66
root  -7.12092 39.2802 -0.509848 -54.0601 -81.5474 48.0018
RightUpLeg  -23.6964 -18.957 -7.05675
RightLeg  20.4862 -1.55864 -0.426567
RightFoot  3.32721 -0.787582 6.29294
RightToes  0.000482159 0.542163 -0.142577
Spine  20.0755 -0.19183 -0.709351
Spine1  5.18137 2.23618 -10.752
HEad  -12.1952 -8.3826 2.14776
LeftShoulder1  6.06931 -11.2064 -35.1907
LeftArm  -19.8238 22.809 -29.6296
LeftForeArm  43.4956 -46.5924 -8.75267
LeftHand  -0.25398 0.0180481 5.50724
RightShoulder  1.00972 1.45783 13.4203
RightArm  -61.2949 25.6999 16.4528
RightForeArm  132.01 67.5417 152.002
RightHand  -1.99573 3.3871 -26.4902
LeftUpLeg  -2.20787 3.71486 -10.7052
LeftLeg  23.1399 6.0345 3.16709
LeftFoot  -14.5773 0.205846 4.21283
LeftToes  1.06244e-005 4.65856e-005 -8.18505e-006
67
root  -8.46058 39.2256 -0.712567 -41.4194 -78.2881 36.1834
RightUpLeg  -21.6669 -18.7091 -9.21104
RightLeg  9.54791 -7.58517 1.56005
RightFoot  2.72681 -0.757954 6.28163
RightToes  0.000482159 0.542163 -0.142577
Spine  20.4436 -0.502287 -2.06592
Spine1  4.37488 1.33693 -9.57497
HEad  -12.8481 -10.8041 2.15664
LeftShoulder1  5.96062 -10.9913 -35.0555
LeftArm  -21.2214 22.1817 -29.5704
LeftForeArm  47.1592 -51.1328 -10.2669
LeftHand  -0.25398 0.0180481 5.50724
RightShoulder  0.704527 -0.0810737 13.7034
RightArm  -72.0735 23.8653 14.2998
RightForeArm  136.174 62.8054 157.464
RightHand  -2.76399 5.30855 -29.3068
LeftUpLeg  -0.662772 0.753803 -11.1671
LeftLeg  22.9357 5.08702 2.70115
LeftFoot  -15.8049 0.230977 3.47968
LeftToes  1.06244e-005 4.65856e-005 -8.18505e-006
68
root  -9.87336 39.119 -0.911783 -36.6491 -75.8727 32.1346
RightUpLeg  -18.9869 -13.5416 -12.7413
RightLeg  1.48409 -19.5291 4.68869
RightFoot  1.91871 -0.6673 5.82816
RightToes  0.000482159 0.542163 -0.142577
Spine  19.6077 -0.372573 -2.03456
Spine1  5.19827 1.54034 -9.49686
HEad  -13.2059 -13.44 1.46861
LeftShoulder1  6.01507 -11.0014 -35.3939
LeftArm  -21.8904 20.477 -29.4547
LeftForeArm  49.0961 -54.6632 -11.7448
LeftHand  -0.25398 0.0180481 5.50724
RightShoulder  0.729842 -0.231932 15.4104
RightArm  -79.6585 25.1389 15.6686
RightForeArm  139.504 58.2439 161.376
RightHand  -5.06252 11.1594 -34.9586
LeftUpLeg  0.916269 -0.889184 -11.2022
LeftLeg  23.0028 4.18995 2.29304
LeftFoot  -17.0723 0.259986 3.11668
LeftToes  1.06244e-005 4.65856e-005 -8.18505e-006
69
root  -11.2854 38.9615 -1.04969 -35.9378 -75.2905 31.8273
RightUpLeg  -18.3369 -14.1182 -12.5201
RightLeg  -0.672163 -22.5864 5.90617
RightFoot  3.82839 -0.553287 4.401
RightToes  0.000482159 0.542163 -0.142577
Spine  18.3418 0.191633 0.564567
Spine1  7.22485 3.23317 -11.4841
HEad  -13.5506 -16.2504 0.492402
LeftShoulder1  6.1858 -11.2005 -35.9807
LeftArm  -21.6104 17.3551 -29.1921
LeftForeArm  49.396 -56.6674 -12.7857
LeftHand  -0.25398 0.0180481 5.50724
RightShoulder  1.18885 1.45951 17.3123
RightArm  -78.033 28.6665 18.7288
RightForeArm  141.929 57.5602 162.562
RightHand  -6.33475 13.9265 -37.2681
LeftUpLeg  2.49867 -0.784609 -10.6337
LeftLeg  23.6857 3.58809 2.06957
LeftFoot  -19.041 0.270519 2.40866
LeftToes  1.06244e-005 4.65856e-005 -8.18505e-006
